<svg width="321" height="54" viewBox="0 0 321 54" fill="none" xmlns="http://www.w3.org/2000/svg">
<path d="M29.3176 20.272L23.1616 40H19.7776L15.0256 24.34L10.2736 40H6.88963L0.697625 20.272H4.04563L8.58163 36.832L13.4776 20.272H16.8256L21.6136 36.868L26.0776 20.272H29.3176ZM50.5689 29.38C50.5689 30.004 50.5329 30.664 50.4609 31.36H34.6929C34.8129 33.304 35.4729 34.828 36.6729 35.932C37.8969 37.012 39.3729 37.552 41.1009 37.552C42.5169 37.552 43.6929 37.228 44.6289 36.58C45.5889 35.908 46.2609 35.02 46.6449 33.916H50.1729C49.6449 35.812 48.5889 37.36 47.0049 38.56C45.4209 39.736 43.4529 40.324 41.1009 40.324C39.2289 40.324 37.5489 39.904 36.0609 39.064C34.5969 38.224 33.4449 37.036 32.6049 35.5C31.7649 33.94 31.3449 32.14 31.3449 30.1C31.3449 28.06 31.7529 26.272 32.5689 24.736C33.3849 23.2 34.5249 22.024 35.9889 21.208C37.4769 20.368 39.1809 19.948 41.1009 19.948C42.9729 19.948 44.6289 20.356 46.0689 21.172C47.5089 21.988 48.6129 23.116 49.3809 24.556C50.1729 25.972 50.5689 27.58 50.5689 29.38ZM47.1849 28.696C47.1849 27.448 46.9089 26.38 46.3569 25.492C45.8049 24.58 45.0489 23.896 44.0889 23.44C43.1529 22.96 42.1089 22.72 40.9569 22.72C39.3009 22.72 37.8849 23.248 36.7089 24.304C35.5569 25.36 34.8969 26.824 34.7289 28.696H47.1849ZM58.1691 23.944C58.8411 22.768 59.8251 21.808 61.1211 21.064C62.4171 20.32 63.8931 19.948 65.5491 19.948C67.3251 19.948 68.9211 20.368 70.3371 21.208C71.7531 22.048 72.8691 23.236 73.6851 24.772C74.5011 26.284 74.9091 28.048 74.9091 30.064C74.9091 32.056 74.5011 33.832 73.6851 35.392C72.8691 36.952 71.7411 38.164 70.3011 39.028C68.8851 39.892 67.3011 40.324 65.5491 40.324C63.8451 40.324 62.3451 39.952 61.0491 39.208C59.7771 38.464 58.8171 37.516 58.1691 36.364V40H54.8931V13.36H58.1691V23.944ZM71.5611 30.064C71.5611 28.576 71.2611 27.28 70.6611 26.176C70.0611 25.072 69.2451 24.232 68.2131 23.656C67.2051 23.08 66.0891 22.792 64.8651 22.792C63.6651 22.792 62.5491 23.092 61.5171 23.692C60.5091 24.268 59.6931 25.12 59.0691 26.248C58.4691 27.352 58.1691 28.636 58.1691 30.1C58.1691 31.588 58.4691 32.896 59.0691 34.024C59.6931 35.128 60.5091 35.98 61.5171 36.58C62.5491 37.156 63.6651 37.444 64.8651 37.444C66.0891 37.444 67.2051 37.156 68.2131 36.58C69.2451 35.98 70.0611 35.128 70.6611 34.024C71.2611 32.896 71.5611 31.576 71.5611 30.064Z" fill="#FA4224"/>
<path d="M82.4972 23.908C83.1452 22.78 84.1052 21.844 85.3772 21.1C86.6732 20.332 88.1732 19.948 89.8772 19.948C91.6292 19.948 93.2132 20.368 94.6292 21.208C96.0692 22.048 97.1972 23.236 98.0132 24.772C98.8292 26.284 99.2372 28.048 99.2372 30.064C99.2372 32.056 98.8292 33.832 98.0132 35.392C97.1972 36.952 96.0692 38.164 94.6292 39.028C93.2132 39.892 91.6292 40.324 89.8772 40.324C88.1972 40.324 86.7092 39.952 85.4132 39.208C84.1412 38.44 83.1692 37.492 82.4972 36.364V49.36H79.2212V20.272H82.4972V23.908ZM95.8892 30.064C95.8892 28.576 95.5892 27.28 94.9892 26.176C94.3892 25.072 93.5732 24.232 92.5412 23.656C91.5332 23.08 90.4172 22.792 89.1932 22.792C87.9932 22.792 86.8772 23.092 85.8452 23.692C84.8372 24.268 84.0212 25.12 83.3972 26.248C82.7972 27.352 82.4972 28.636 82.4972 30.1C82.4972 31.588 82.7972 32.896 83.3972 34.024C84.0212 35.128 84.8372 35.98 85.8452 36.58C86.8772 37.156 87.9932 37.444 89.1932 37.444C90.4172 37.444 91.5332 37.156 92.5412 36.58C93.5732 35.98 94.3892 35.128 94.9892 34.024C95.5892 32.896 95.8892 31.576 95.8892 30.064ZM112.153 40.324C110.305 40.324 108.625 39.904 107.113 39.064C105.625 38.224 104.449 37.036 103.585 35.5C102.745 33.94 102.325 32.14 102.325 30.1C102.325 28.084 102.757 26.308 103.621 24.772C104.509 23.212 105.709 22.024 107.221 21.208C108.733 20.368 110.425 19.948 112.297 19.948C114.169 19.948 115.861 20.368 117.373 21.208C118.885 22.024 120.073 23.2 120.937 24.736C121.825 26.272 122.269 28.06 122.269 30.1C122.269 32.14 121.813 33.94 120.901 35.5C120.013 37.036 118.801 38.224 117.265 39.064C115.729 39.904 114.025 40.324 112.153 40.324ZM112.153 37.444C113.329 37.444 114.433 37.168 115.465 36.616C116.497 36.064 117.325 35.236 117.949 34.132C118.597 33.028 118.921 31.684 118.921 30.1C118.921 28.516 118.609 27.172 117.985 26.068C117.361 24.964 116.545 24.148 115.537 23.62C114.529 23.068 113.437 22.792 112.261 22.792C111.061 22.792 109.957 23.068 108.949 23.62C107.965 24.148 107.173 24.964 106.573 26.068C105.973 27.172 105.673 28.516 105.673 30.1C105.673 31.708 105.961 33.064 106.537 34.168C107.137 35.272 107.929 36.1 108.913 36.652C109.897 37.18 110.977 37.444 112.153 37.444ZM150.301 19.912C151.837 19.912 153.205 20.236 154.405 20.884C155.605 21.508 156.553 22.456 157.249 23.728C157.945 25 158.293 26.548 158.293 28.372V40H155.053V28.84C155.053 26.872 154.561 25.372 153.577 24.34C152.617 23.284 151.309 22.756 149.653 22.756C147.949 22.756 146.593 23.308 145.585 24.412C144.577 25.492 144.073 27.064 144.073 29.128V40H140.833V28.84C140.833 26.872 140.341 25.372 139.357 24.34C138.397 23.284 137.089 22.756 135.433 22.756C133.729 22.756 132.373 23.308 131.365 24.412C130.357 25.492 129.853 27.064 129.853 29.128V40H126.577V20.272H129.853V23.116C130.501 22.084 131.365 21.292 132.445 20.74C133.549 20.188 134.761 19.912 136.081 19.912C137.737 19.912 139.201 20.284 140.473 21.028C141.745 21.772 142.693 22.864 143.317 24.304C143.869 22.912 144.781 21.832 146.053 21.064C147.325 20.296 148.741 19.912 150.301 19.912ZM172.271 40.324C170.423 40.324 168.743 39.904 167.231 39.064C165.743 38.224 164.567 37.036 163.703 35.5C162.863 33.94 162.443 32.14 162.443 30.1C162.443 28.084 162.875 26.308 163.739 24.772C164.627 23.212 165.827 22.024 167.339 21.208C168.851 20.368 170.543 19.948 172.415 19.948C174.287 19.948 175.979 20.368 177.491 21.208C179.003 22.024 180.191 23.2 181.055 24.736C181.943 26.272 182.387 28.06 182.387 30.1C182.387 32.14 181.931 33.94 181.019 35.5C180.131 37.036 178.919 38.224 177.383 39.064C175.847 39.904 174.143 40.324 172.271 40.324ZM172.271 37.444C173.447 37.444 174.551 37.168 175.583 36.616C176.615 36.064 177.443 35.236 178.067 34.132C178.715 33.028 179.039 31.684 179.039 30.1C179.039 28.516 178.727 27.172 178.103 26.068C177.479 24.964 176.663 24.148 175.655 23.62C174.647 23.068 173.555 22.792 172.379 22.792C171.179 22.792 170.075 23.068 169.067 23.62C168.083 24.148 167.291 24.964 166.691 26.068C166.091 27.172 165.791 28.516 165.791 30.1C165.791 31.708 166.079 33.064 166.655 34.168C167.255 35.272 168.047 36.1 169.031 36.652C170.015 37.18 171.095 37.444 172.271 37.444ZM185.47 30.064C185.47 28.048 185.878 26.284 186.694 24.772C187.51 23.236 188.626 22.048 190.042 21.208C191.482 20.368 193.09 19.948 194.866 19.948C196.402 19.948 197.83 20.308 199.15 21.028C200.47 21.724 201.478 22.648 202.174 23.8V13.36H205.486V40H202.174V36.292C201.526 37.468 200.566 38.44 199.294 39.208C198.022 39.952 196.534 40.324 194.83 40.324C193.078 40.324 191.482 39.892 190.042 39.028C188.626 38.164 187.51 36.952 186.694 35.392C185.878 33.832 185.47 32.056 185.47 30.064ZM202.174 30.1C202.174 28.612 201.874 27.316 201.274 26.212C200.674 25.108 199.858 24.268 198.826 23.692C197.818 23.092 196.702 22.792 195.478 22.792C194.254 22.792 193.138 23.08 192.13 23.656C191.122 24.232 190.318 25.072 189.718 26.176C189.118 27.28 188.818 28.576 188.818 30.064C188.818 31.576 189.118 32.896 189.718 34.024C190.318 35.128 191.122 35.98 192.13 36.58C193.138 37.156 194.254 37.444 195.478 37.444C196.702 37.444 197.818 37.156 198.826 36.58C199.858 35.98 200.674 35.128 201.274 34.024C201.874 32.896 202.174 31.588 202.174 30.1ZM219.626 40.324C217.778 40.324 216.098 39.904 214.586 39.064C213.098 38.224 211.922 37.036 211.058 35.5C210.218 33.94 209.798 32.14 209.798 30.1C209.798 28.084 210.23 26.308 211.094 24.772C211.982 23.212 213.182 22.024 214.694 21.208C216.206 20.368 217.898 19.948 219.77 19.948C221.642 19.948 223.334 20.368 224.846 21.208C226.358 22.024 227.546 23.2 228.41 24.736C229.298 26.272 229.742 28.06 229.742 30.1C229.742 32.14 229.286 33.94 228.374 35.5C227.486 37.036 226.274 38.224 224.738 39.064C223.202 39.904 221.498 40.324 219.626 40.324ZM219.626 37.444C220.802 37.444 221.906 37.168 222.938 36.616C223.97 36.064 224.798 35.236 225.422 34.132C226.07 33.028 226.394 31.684 226.394 30.1C226.394 28.516 226.082 27.172 225.458 26.068C224.834 24.964 224.018 24.148 223.01 23.62C222.002 23.068 220.91 22.792 219.734 22.792C218.534 22.792 217.43 23.068 216.422 23.62C215.438 24.148 214.646 24.964 214.046 26.068C213.446 27.172 213.146 28.516 213.146 30.1C213.146 31.708 213.434 33.064 214.01 34.168C214.61 35.272 215.402 36.1 216.386 36.652C217.37 37.18 218.45 37.444 219.626 37.444ZM237.325 23.476C237.901 22.348 238.717 21.472 239.773 20.848C240.853 20.224 242.161 19.912 243.697 19.912V23.296H242.833C239.161 23.296 237.325 25.288 237.325 29.272V40H234.049V20.272H237.325V23.476ZM256.083 40.324C254.235 40.324 252.555 39.904 251.043 39.064C249.555 38.224 248.379 37.036 247.515 35.5C246.675 33.94 246.255 32.14 246.255 30.1C246.255 28.084 246.687 26.308 247.551 24.772C248.439 23.212 249.639 22.024 251.151 21.208C252.663 20.368 254.355 19.948 256.227 19.948C258.099 19.948 259.791 20.368 261.303 21.208C262.815 22.024 264.003 23.2 264.867 24.736C265.755 26.272 266.199 28.06 266.199 30.1C266.199 32.14 265.743 33.94 264.831 35.5C263.943 37.036 262.731 38.224 261.195 39.064C259.659 39.904 257.955 40.324 256.083 40.324ZM256.083 37.444C257.259 37.444 258.363 37.168 259.395 36.616C260.427 36.064 261.255 35.236 261.879 34.132C262.527 33.028 262.851 31.684 262.851 30.1C262.851 28.516 262.539 27.172 261.915 26.068C261.291 24.964 260.475 24.148 259.467 23.62C258.459 23.068 257.367 22.792 256.191 22.792C254.991 22.792 253.887 23.068 252.879 23.62C251.895 24.148 251.103 24.964 250.503 26.068C249.903 27.172 249.603 28.516 249.603 30.1C249.603 31.708 249.891 33.064 250.467 34.168C251.067 35.272 251.859 36.1 252.843 36.652C253.827 37.18 254.907 37.444 256.083 37.444Z" fill="black"/>
<path d="M301 12C292.719 12 286 18.7188 286 27C286 35.2812 292.719 42 301 42C309.281 42 316 35.2812 316 27C316 18.7188 309.281 12 301 12Z" stroke="#FA4224" stroke-width="4" stroke-miterlimit="10"/>
<path d="M301 17V28.25H308.5" stroke="#FA4224" stroke-width="4" stroke-linecap="round" stroke-linejoin="round"/>
</svg>
